<svg width="566" height="115" viewBox="0 0 566 115" fill="none" xmlns="http://www.w3.org/2000/svg">
<path d="M43.0437 72.2876H42.6141H5.20114C3.82573 72.2978 2.5091 72.849 1.53378 73.8227C1.0522 74.3063 0.67021 74.8804 0.409596 75.5122C0.148983 76.144 0.0148622 76.8212 0.0148926 77.505V109.612C0.0148926 110.993 0.561295 112.318 1.5339 113.294C2.50651 114.271 3.82566 114.819 5.20114 114.819C6.57661 114.819 7.89575 114.271 8.86836 113.294C9.84097 112.318 10.3874 110.993 10.3874 109.612V82.7124H43.1536C43.8689 82.767 44.5363 83.0945 45.0187 83.6275C45.5011 84.1606 45.762 84.8588 45.748 85.5789C45.7339 86.299 45.4459 86.9864 44.9431 87.5001C44.4402 88.0137 43.7606 88.3147 43.0437 88.3411H42.684H18.9911C18.2916 88.3103 17.5931 88.422 16.9377 88.6695C16.2823 88.917 15.6836 89.2953 15.1777 89.7814C14.6718 90.2675 14.2692 90.8514 13.9942 91.498C13.7191 92.1446 13.5773 92.8404 13.5773 93.5435C13.5773 94.2465 13.7191 94.9423 13.9942 95.5889C14.2692 96.2355 14.6718 96.8194 15.1777 97.3056C15.6836 97.7917 16.2823 98.1699 16.9377 98.4174C17.5931 98.665 18.2916 98.7767 18.9911 98.7458H43.0337C43.2712 98.7494 43.5086 98.7326 43.7432 98.6956C47.1661 98.5062 50.3805 96.9842 52.7036 94.4531C55.0266 91.9219 56.2753 88.5811 56.1842 85.1403C56.0931 81.6995 54.6695 78.4299 52.2158 76.0262C49.7621 73.6226 46.4718 72.2742 43.0437 72.2675V72.2876ZM82.5451 88.3411C81.1696 88.3411 79.8505 88.8898 78.8779 89.8663C77.9053 90.8429 77.3589 92.1674 77.3589 93.5485C77.3589 94.9296 77.9053 96.2541 78.8779 97.2306C79.8505 98.2072 81.1696 98.7558 82.5451 98.7558H108.986C110.362 98.7558 111.681 98.2072 112.653 97.2306C113.626 96.2541 114.172 94.9296 114.172 93.5485C114.172 92.1674 113.626 90.8429 112.653 89.8663C111.681 88.8898 110.362 88.3411 108.986 88.3411H82.5451ZM308.551 104.395H280.082C279.336 104.395 278.619 104.098 278.089 103.57C277.56 103.042 277.259 102.325 277.254 101.575V77.5652C277.254 76.1841 276.708 74.8596 275.735 73.883C274.763 72.9065 273.443 72.3578 272.068 72.3578C270.692 72.3578 269.373 72.9065 268.401 73.883C267.428 74.8596 266.882 76.1841 266.882 77.5652V101.595C266.89 105.018 268.216 108.306 270.584 110.769C272.951 113.232 276.176 114.68 279.583 114.809C279.749 114.82 279.916 114.82 280.082 114.809H308.551C309.927 114.809 311.246 114.261 312.219 113.284C313.191 112.308 313.738 110.983 313.738 109.602C313.738 108.221 313.191 106.896 312.219 105.92C311.246 104.943 309.927 104.395 308.551 104.395ZM182.373 72.2876C180.997 72.2903 179.677 72.8411 178.705 73.8193C177.733 74.7975 177.187 76.123 177.187 77.505V103.311C175.283 102.518 173.476 101.508 171.801 100.301C165.995 96.2876 159.909 89.6956 153.674 83.8361C150.641 80.9101 147.331 78.2889 143.791 76.01C140.288 73.7018 136.217 72.4101 132.029 72.2776C131.347 72.2776 130.672 72.4126 130.042 72.6749C129.412 72.9372 128.84 73.3217 128.359 73.8063C127.877 74.2909 127.495 74.8662 127.235 75.4991C126.975 76.1321 126.842 76.8103 126.843 77.495V109.602C126.843 110.983 127.39 112.308 128.362 113.284C129.335 114.261 130.654 114.809 132.029 114.809C133.405 114.809 134.724 114.261 135.697 113.284C136.669 112.308 137.216 110.983 137.216 109.602V84.2475C138.543 84.9578 139.81 85.7766 141.003 86.6956C146.399 90.709 152.435 97.4314 158.99 103.341C162.233 106.352 165.795 108.996 169.612 111.227C173.47 113.48 177.832 114.719 182.293 114.829H182.363C183.738 114.829 185.058 114.281 186.03 113.304C187.003 112.328 187.549 111.003 187.549 109.622V77.515C187.55 76.8312 187.418 76.1538 187.158 75.5215C186.899 74.8892 186.518 74.3144 186.037 73.8299C185.557 73.3455 184.986 72.9608 184.357 72.6979C183.728 72.435 183.054 72.299 182.373 72.2976V72.2876ZM120.148 77.505C120.148 76.123 119.602 74.7975 118.63 73.8193C117.657 72.8411 116.338 72.2903 114.962 72.2876H83.1547H82.6051C76.9866 72.273 71.5924 74.5 67.6092 78.4787C63.626 82.4574 61.38 87.8619 61.3655 93.5033C61.3509 99.1447 63.5688 104.561 67.5314 108.56C71.494 112.56 76.8766 114.815 82.4952 114.829H114.962C116.337 114.829 117.656 114.281 118.629 113.304C119.602 112.328 120.148 111.003 120.148 109.622C120.148 108.241 119.602 106.916 118.629 105.94C117.656 104.963 116.337 104.415 114.962 104.415H83.1747C82.985 104.403 82.7947 104.403 82.6051 104.415C79.801 104.329 77.1403 103.15 75.187 101.128C73.2337 99.1066 72.1413 96.4004 72.1413 93.5836C72.1413 90.7668 73.2337 88.0606 75.187 86.0388C77.1403 84.0169 79.801 82.8382 82.6051 82.7525H114.972C115.655 82.7512 116.33 82.6145 116.96 82.3504C117.59 82.0862 118.162 81.6997 118.643 81.2131C119.124 80.7265 119.505 80.1493 119.763 79.5147C120.021 78.8801 120.152 78.2006 120.148 77.515V77.505ZM257.129 93.5585V93.408C257.103 90.2128 256.156 87.0936 254.401 84.4281C251.671 80.4471 247.854 77.3427 243.409 75.4883C238.472 73.3656 233.15 72.2929 227.78 72.3378C220.73 72.2034 213.791 74.1124 207.794 77.8361C205.13 79.5412 202.849 81.7865 201.099 84.4281C199.33 87.106 198.378 90.2446 198.361 93.4582C198.354 93.4777 198.354 93.4989 198.361 93.5184V109.783C198.361 111.164 198.908 112.488 199.88 113.465C200.853 114.441 202.172 114.99 203.548 114.99C204.923 114.99 206.242 114.441 207.215 113.465C208.187 112.488 208.734 111.164 208.734 109.783V108.428C208.734 108.428 208.734 108.247 209.263 107.635C211.117 105.967 213.346 104.776 215.759 104.164C219.631 103.014 223.652 102.449 227.69 102.488H227.84C232.933 102.391 237.991 103.347 242.699 105.298C244.021 105.844 245.225 106.641 246.247 107.645C246.756 108.227 246.776 108.438 246.776 108.478V109.793C246.776 111.174 247.323 112.498 248.295 113.475C249.268 114.451 250.587 115 251.963 115C253.338 115 254.657 114.451 255.63 113.475C256.602 112.498 257.149 111.174 257.149 109.793V108.649C257.149 108.649 257.149 108.579 257.149 108.498C257.149 108.418 257.149 108.358 257.149 108.348L257.129 93.5585ZM246.756 93.4682V95.6756C245.47 95.1104 244.156 94.6114 242.819 94.1806C237.923 92.7206 232.838 91.997 227.73 92.0334C221.219 91.9245 214.756 93.1643 208.744 95.6756V93.398C208.78 92.2101 209.154 91.0575 209.823 90.0769C211.479 87.8238 213.733 86.085 216.328 85.0602C219.919 83.5246 223.787 82.7492 227.69 82.7826H227.78C232.784 82.6777 237.714 83.9998 242 86.5953C243.458 87.4975 244.711 88.6974 245.677 90.117C246.354 91.0966 246.726 92.256 246.746 93.4482L246.756 93.4682ZM411.777 99.2073C410.36 99.2073 408.974 99.6293 407.796 100.42C406.618 101.21 405.7 102.334 405.157 103.648C404.615 104.963 404.473 106.409 404.75 107.805C405.026 109.2 405.708 110.482 406.71 111.488C407.712 112.494 408.989 113.179 410.379 113.457C411.769 113.735 413.209 113.592 414.519 113.048C415.828 112.503 416.947 111.581 417.734 110.398C418.521 109.215 418.942 107.824 418.942 106.401C418.931 104.5 418.171 102.681 416.829 101.34C415.486 99.9999 413.67 99.2474 411.777 99.2475V99.2073ZM411.777 111.94C410.685 111.942 409.618 111.619 408.709 111.011C407.801 110.404 407.093 109.54 406.673 108.528C406.254 107.516 406.144 106.402 406.356 105.327C406.567 104.252 407.092 103.264 407.863 102.489C408.634 101.713 409.617 101.185 410.687 100.97C411.757 100.755 412.867 100.865 413.875 101.284C414.884 101.702 415.746 102.412 416.352 103.323C416.959 104.234 417.283 105.306 417.283 106.401C417.285 107.873 416.708 109.286 415.676 110.331C414.644 111.377 413.242 111.969 411.777 111.98V111.94ZM413.775 77.1839C413.757 76.1015 413.408 75.0509 412.776 74.1739C411.982 73.0499 410.776 72.2884 409.423 72.057C408.07 71.8256 406.681 72.1431 405.561 72.9398L385.576 87.1973L365.59 73.2308C365.031 72.839 364.401 72.5621 363.735 72.4161C363.069 72.27 362.381 72.2578 361.71 72.38C361.04 72.5021 360.4 72.7563 359.827 73.1279C359.255 73.4995 358.762 73.9812 358.375 74.5451C357.759 75.426 357.434 76.4789 357.446 77.5552C357.445 78.398 357.649 79.2284 358.039 79.9748C358.429 80.7211 358.993 81.3611 359.685 81.8394L380.449 96.3077V109.672C380.449 111.053 380.996 112.378 381.968 113.354C382.941 114.331 384.26 114.88 385.636 114.88C387.011 114.88 388.33 114.331 389.303 113.354C390.275 112.378 390.822 111.053 390.822 109.672V96.2575L411.557 81.4782C412.241 81.0005 412.8 80.3646 413.188 79.6242C413.576 78.8838 413.781 78.0606 413.785 77.2241L413.775 77.1839ZM349.822 72.2575H303.805C302.468 72.3165 301.204 72.8914 300.279 73.8624C299.353 74.8335 298.837 76.1258 298.837 77.4699C298.837 78.814 299.353 80.1063 300.279 81.0774C301.204 82.0484 302.468 82.6233 303.805 82.6823H321.622V109.582C321.622 110.963 322.168 112.288 323.141 113.264C324.114 114.241 325.433 114.789 326.808 114.789C328.184 114.789 329.503 114.241 330.476 113.264C331.448 112.288 331.995 110.963 331.995 109.582V82.7224H349.812C351.149 82.6635 352.412 82.0886 353.338 81.1175C354.263 80.1464 354.78 78.8541 354.78 77.51C354.78 76.1659 354.263 74.8736 353.338 73.9025C352.412 72.9315 351.149 72.3566 349.812 72.2976L349.822 72.2575ZM414.994 106.05C415.203 105.757 415.322 105.408 415.334 105.047C415.333 104.812 415.286 104.58 415.195 104.364C415.104 104.148 414.972 103.952 414.806 103.787C414.64 103.622 414.443 103.492 414.227 103.403C414.011 103.314 413.779 103.27 413.545 103.271H408.759C408.671 103.269 408.584 103.286 408.503 103.319C408.421 103.353 408.348 103.402 408.286 103.465C408.224 103.528 408.176 103.603 408.144 103.685C408.112 103.767 408.097 103.855 408.099 103.943V108.428C408.099 108.606 408.17 108.777 408.296 108.903C408.421 109.029 408.591 109.1 408.769 109.1C408.947 109.1 409.117 109.029 409.242 108.903C409.368 108.777 409.438 108.606 409.438 108.428V104.605H413.555C413.675 104.605 413.789 104.653 413.873 104.738C413.958 104.822 414.005 104.937 414.005 105.057C414.005 105.177 413.958 105.291 413.873 105.376C413.789 105.461 413.675 105.508 413.555 105.508H410.688C410.509 105.511 410.339 105.584 410.214 105.712C410.088 105.839 410.018 106.011 410.018 106.191C410.021 106.367 410.092 106.536 410.218 106.66C410.343 106.783 410.512 106.853 410.688 106.853H413.256C413.67 106.855 414.067 107.023 414.359 107.318C414.651 107.613 414.815 108.012 414.815 108.428C414.815 108.606 414.885 108.777 415.011 108.903C415.136 109.029 415.307 109.1 415.484 109.1C415.572 109.1 415.658 109.083 415.739 109.049C415.819 109.015 415.893 108.965 415.954 108.903C416.015 108.84 416.064 108.766 416.096 108.685C416.129 108.603 416.145 108.516 416.144 108.428C416.155 107.968 416.057 107.513 415.857 107.099C415.657 106.685 415.361 106.326 414.994 106.05Z" fill="white"/>
<path d="M282.65 12.9298C370.087 3.10709 442.594 85.4114 466.807 71.8362L508.487 47.4549C475.81 66.1874 388.474 -6.93639 282.65 12.9298ZM294.322 8.42481C402.374 -5.62201 494.177 55.4014 520.548 40.3813L565.985 13.4315C536.137 30.4683 415.714 -16.418 294.352 8.42481H294.322Z" fill="#009B4E"/>
</svg>
